# xmcd
# 
# Track frame offsets:
#     150
#     18801
#     36040
#     51861
#     70029
#     86827
#     99973
#     112456
#     130258
#     152879
#     179198
#     199624
#     230550
#     245098
#     264980
#     284047
#     306898
#     328816
#     341685
# 
# Disc length: 4783
# 
# Revision: 4
# Processed by: cddbd v1.5.2PL0 Copyright (c) Steve Scherf et al.
# Submitted via: fre:ac v1.0.31
# 
DISCID=2112ad13
DTITLE=Maria Muldaur - I'm A Woman-30 Years Of Maria Muldaur
DYEAR=2004
DGENRE=Blues
TTITLE0=I'm A Woman
TTITLE1=Midnight At The Oasis
TTITLE2=My Tennessee Mountain Home
TTITLE3=The Work Song
TTITLE4=Rockin' Chair
TTITLE5=It Ain't The Meat (It's The Motion)
TTITLE6=Don't You Make Me High (Don't You Feel My Leg)
TTITLE7=Three Dollar Bill
TTITLE8=Cajun Moon
TTITLE9=Louisiana Love Call
TTITLE10=Best Of Me
TTITLE11=It Feels Like Rain
TTITLE12=Me and My Chauffer Blues
TTITLE13=Gee Baby, Ain't I Good To You
TTITLE14=Get Up, Get Ready
TTITLE15=Somebody Was Watching Over Me
TTITLE16=Well, Well, Well
TTITLE17=Soul Of A Man
TTITLE18=It's A Blessing
EXTD=YEAR: 2004
EXTT0=
EXTT1=
EXTT2=
EXTT3=
EXTT4=
EXTT5=
EXTT6=
EXTT7=
EXTT8=
EXTT9=
EXTT10=
EXTT11=
EXTT12=
EXTT13=
EXTT14=
EXTT15=
EXTT16=
EXTT17=
EXTT18=
PLAYORDER=
